<?xml version="1.0" encoding="UTF-8"?>
<!DOCTYPE svg PUBLIC "-//W3C//DTD SVG 1.1//EN" "http://www.w3.org/Graphics/SVG/1.1/DTD/svg11.dtd">
<svg xmlns="http://www.w3.org/2000/svg" version="1.1" width="540px" height="275px" style="shape-rendering:geometricPrecision; text-rendering:geometricPrecision; image-rendering:optimizeQuality; fill-rule:evenodd; clip-rule:evenodd" xmlns:xlink="http://www.w3.org/1999/xlink">
<g><path style="opacity:1" fill="#d3373a" d="M -0.5,-0.5 C 179.5,-0.5 359.5,-0.5 539.5,-0.5C 539.5,91.1667 539.5,182.833 539.5,274.5C 359.5,274.5 179.5,274.5 -0.5,274.5C -0.5,182.833 -0.5,91.1667 -0.5,-0.5 Z"/></g>
<g><path style="opacity:1" fill="#fefcfc" d="M 245.5,20.5 C 259.837,20.3334 274.171,20.5001 288.5,21C 291.658,24.4725 292.158,28.3058 290,32.5C 282.139,49.7502 274.472,67.0835 267,84.5C 258.667,66.1667 250.333,47.8333 242,29.5C 242.023,26.1108 243.19,23.1108 245.5,20.5 Z"/></g>
<g><path style="opacity:1" fill="#fef9f9" d="M 298.5,57.5 C 300.644,63.955 302.477,70.6217 304,77.5C 304.667,79.1667 304.667,80.8333 304,82.5C 292.167,95 280.333,107.5 268.5,120C 267.5,120.667 266.5,120.667 265.5,120C 253.988,107.655 242.321,95.4885 230.5,83.5C 230.219,74.9345 231.719,66.6012 235,58.5C 245.667,73.8333 256.333,89.1667 267,104.5C 277.51,88.8047 288.01,73.138 298.5,57.5 Z"/></g>
<g><path style="opacity:1" fill="#f0baba" d="M 364.5,154.5 C 359.786,154.173 355.12,154.507 350.5,155.5C 352.291,156.17 353.958,156.837 355.5,157.5C 353.5,157.5 351.5,157.5 349.5,157.5C 349.5,156.167 349.5,154.833 349.5,153.5C 354.695,153.179 359.695,153.513 364.5,154.5 Z"/></g>
<g><path style="opacity:1" fill="#f7dada" d="M 115.5,153.5 C 119.741,152.75 123.074,154.083 125.5,157.5C 125.167,158.5 124.5,159.167 123.5,159.5C 120.618,155.587 117.785,155.587 115,159.5C 114.333,162.5 114.333,165.5 115,168.5C 117.795,171.113 120.629,171.113 123.5,168.5C 126.079,169.888 126.079,171.388 123.5,173C 118.473,175.62 114.64,174.453 112,169.5C 110.432,163.375 111.599,158.042 115.5,153.5 Z"/></g>
<g><path style="opacity:1" fill="#edb1b1" d="M 134.5,161.5 C 134.5,161.833 134.5,162.167 134.5,162.5C 133.834,159.972 133.168,157.306 132.5,154.5C 131.504,160.798 131.17,167.132 131.5,173.5C 130.509,167.021 130.176,160.354 130.5,153.5C 131.833,153.5 133.167,153.5 134.5,153.5C 134.5,156.167 134.5,158.833 134.5,161.5 Z"/></g>
<g><path style="opacity:1" fill="#f9e4e5" d="M 142.5,153.5 C 143.5,153.5 144.5,153.5 145.5,153.5C 145.5,160.167 145.5,166.833 145.5,173.5C 144.5,173.5 143.5,173.5 142.5,173.5C 142.5,170.833 142.5,168.167 142.5,165.5C 139.833,165.5 137.167,165.5 134.5,165.5C 134.5,168.167 134.5,170.833 134.5,173.5C 133.5,173.5 132.5,173.5 131.5,173.5C 131.17,167.132 131.504,160.798 132.5,154.5C 133.168,157.306 133.834,159.972 134.5,162.5C 137.167,162.5 139.833,162.5 142.5,162.5C 142.5,159.5 142.5,156.5 142.5,153.5 Z"/></g>
<g><path style="opacity:1" fill="#f9e6e6" d="M 164.5,153.5 C 164.5,154.5 164.5,155.5 164.5,156.5C 161.287,156.19 158.287,156.523 155.5,157.5C 155.5,159.167 155.5,160.833 155.5,162.5C 158.167,162.5 160.833,162.5 163.5,162.5C 163.5,163.5 163.5,164.5 163.5,165.5C 160.833,165.5 158.167,165.5 155.5,165.5C 155.5,167.167 155.5,168.833 155.5,170.5C 158.833,170.5 162.167,170.5 165.5,170.5C 165.5,171.5 165.5,172.5 165.5,173.5C 161.167,173.5 156.833,173.5 152.5,173.5C 152.5,166.833 152.5,160.167 152.5,153.5C 156.5,153.5 160.5,153.5 164.5,153.5 Z"/></g>
<g><path style="opacity:1" fill="#f7d7d7" d="M 176.5,153.5 C 177.675,153.281 178.675,153.614 179.5,154.5C 181.607,160.767 183.94,166.934 186.5,173C 185.207,173.49 183.873,173.657 182.5,173.5C 182.5,172.5 182.5,171.5 182.5,170.5C 179.5,170.5 176.5,170.5 173.5,170.5C 173.5,171.5 173.5,172.5 173.5,173.5C 172.167,173.5 170.833,173.5 169.5,173.5C 171.834,166.829 174.167,160.162 176.5,153.5 Z"/></g>
<g><path style="opacity:1" fill="#f6d1d1" d="M 189.5,153.5 C 194.5,153.5 199.5,153.5 204.5,153.5C 204.5,154.833 204.5,156.167 204.5,157.5C 202.5,157.5 200.5,157.5 198.5,157.5C 198.5,162.833 198.5,168.167 198.5,173.5C 197.167,173.5 195.833,173.5 194.5,173.5C 194.5,168.167 194.5,162.833 194.5,157.5C 192.833,157.5 191.167,157.5 189.5,157.5C 189.5,156.167 189.5,154.833 189.5,153.5 Z"/></g>
<g><path style="opacity:1" fill="#eeb2b2" d="M 221.5,154.5 C 217.5,154.5 213.5,154.5 209.5,154.5C 209.5,160.833 209.5,167.167 209.5,173.5C 208.509,167.021 208.176,160.354 208.5,153.5C 213.032,153.182 217.366,153.515 221.5,154.5 Z"/></g>
<g><path style="opacity:1" fill="#f9e0e0" d="M 221.5,154.5 C 221.5,155.5 221.5,156.5 221.5,157.5C 218.5,157.5 215.5,157.5 212.5,157.5C 212.5,159.167 212.5,160.833 212.5,162.5C 215.167,162.5 217.833,162.5 220.5,162.5C 220.5,163.5 220.5,164.5 220.5,165.5C 217.833,165.5 215.167,165.5 212.5,165.5C 212.5,167.167 212.5,168.833 212.5,170.5C 215.5,170.5 218.5,170.5 221.5,170.5C 221.5,171.5 221.5,172.5 221.5,173.5C 217.5,173.5 213.5,173.5 209.5,173.5C 209.5,167.167 209.5,160.833 209.5,154.5C 213.5,154.5 217.5,154.5 221.5,154.5 Z"/></g>
<g><path style="opacity:1" fill="#f8dddd" d="M 227.5,153.5 C 230.85,153.335 234.183,153.502 237.5,154C 242.462,157.303 242.795,161.136 238.5,165.5C 239.706,168.079 241.039,170.579 242.5,173C 241.167,173.667 239.833,173.667 238.5,173C 237.206,170.913 236.039,168.746 235,166.5C 233.989,165.663 232.822,165.33 231.5,165.5C 231.5,168.167 231.5,170.833 231.5,173.5C 230.167,173.5 228.833,173.5 227.5,173.5C 227.5,166.833 227.5,160.167 227.5,153.5 Z"/></g>
<g><path style="opacity:1" fill="#f0bfbf" d="M 265.5,154.5 C 262.833,154.5 260.167,154.5 257.5,154.5C 257.5,160.833 257.5,167.167 257.5,173.5C 256.509,167.021 256.176,160.354 256.5,153.5C 259.713,153.19 262.713,153.523 265.5,154.5 Z"/></g>
<g><path style="opacity:1" fill="#f7d8d7" d="M 265.5,154.5 C 267.903,154.393 269.736,155.393 271,157.5C 274.622,169.976 270.122,175.309 257.5,173.5C 257.5,167.167 257.5,160.833 257.5,154.5C 260.167,154.5 262.833,154.5 265.5,154.5 Z"/></g>
<g><path style="opacity:1" fill="#edaeaf" d="M 280.5,157.5 C 283.358,156.834 286.358,156.167 289.5,155.5C 285.555,154.509 281.555,154.176 277.5,154.5C 277.5,160.833 277.5,167.167 277.5,173.5C 276.509,167.021 276.176,160.354 276.5,153.5C 281.167,153.5 285.833,153.5 290.5,153.5C 290.5,154.833 290.5,156.167 290.5,157.5C 287.167,157.5 283.833,157.5 280.5,157.5 Z"/></g>
<g><path style="opacity:1" fill="#f9e5e5" d="M 280.5,157.5 C 280.5,159.167 280.5,160.833 280.5,162.5C 283.167,162.5 285.833,162.5 288.5,162.5C 288.5,163.5 288.5,164.5 288.5,165.5C 285.833,165.5 283.167,165.5 280.5,165.5C 280.5,167.167 280.5,168.833 280.5,170.5C 283.833,170.5 287.167,170.5 290.5,170.5C 290.5,171.5 290.5,172.5 290.5,173.5C 286.167,173.5 281.833,173.5 277.5,173.5C 277.5,167.167 277.5,160.833 277.5,154.5C 281.555,154.176 285.555,154.509 289.5,155.5C 286.358,156.167 283.358,156.834 280.5,157.5 Z"/></g>
<g><path style="opacity:1" fill="#f7d6d6" d="M 293.5,153.5 C 298.833,153.5 304.167,153.5 309.5,153.5C 309.241,157.068 307.241,158.401 303.5,157.5C 303.5,162.833 303.5,168.167 303.5,173.5C 302.167,173.5 300.833,173.5 299.5,173.5C 299.5,168.167 299.5,162.833 299.5,157.5C 295.759,158.401 293.759,157.068 293.5,153.5 Z"/></g>
<g><path style="opacity:1" fill="#f9e3e3" d="M 326.5,153.5 C 326.5,154.5 326.5,155.5 326.5,156.5C 323.287,156.19 320.287,156.523 317.5,157.5C 317.5,159.167 317.5,160.833 317.5,162.5C 320.167,162.5 322.833,162.5 325.5,162.5C 325.5,163.5 325.5,164.5 325.5,165.5C 322.833,165.5 320.167,165.5 317.5,165.5C 317.5,167.167 317.5,168.833 317.5,170.5C 320.5,170.5 323.5,170.5 326.5,170.5C 326.5,171.5 326.5,172.5 326.5,173.5C 322.167,173.5 317.833,173.5 313.5,173.5C 313.5,166.833 313.5,160.167 313.5,153.5C 317.833,153.5 322.167,153.5 326.5,153.5 Z"/></g>
<g><path style="opacity:1" fill="#f7d6d6" d="M 336.5,153.5 C 341.709,152.396 344.709,154.396 345.5,159.5C 343.332,158.821 341.332,157.821 339.5,156.5C 337.971,156.529 336.804,157.196 336,158.5C 335.333,162.167 335.333,165.833 336,169.5C 338.711,170.926 341.211,170.592 343.5,168.5C 344.5,168.833 345.167,169.5 345.5,170.5C 342.631,174.633 338.964,175.467 334.5,173C 331.669,168.559 330.836,163.726 332,158.5C 333.025,156.313 334.525,154.646 336.5,153.5 Z"/></g>
<g><path style="opacity:1" fill="#faeceb" d="M 364.5,154.5 C 364.5,155.167 364.5,155.833 364.5,156.5C 362.5,156.5 360.5,156.5 358.5,156.5C 358.5,162.167 358.5,167.833 358.5,173.5C 357.5,173.5 356.5,173.5 355.5,173.5C 355.5,168.167 355.5,162.833 355.5,157.5C 353.958,156.837 352.291,156.17 350.5,155.5C 355.12,154.507 359.786,154.173 364.5,154.5 Z"/></g>
<g><path style="opacity:1" fill="#f7d8d8" d="M 374.5,153.5 C 375.822,153.33 376.989,153.663 378,154.5C 380.265,160.462 382.432,166.462 384.5,172.5C 383.311,173.429 381.978,173.762 380.5,173.5C 380.5,172.5 380.5,171.5 380.5,170.5C 377.5,170.5 374.5,170.5 371.5,170.5C 371.5,171.5 371.5,172.5 371.5,173.5C 370.022,173.762 368.689,173.429 367.5,172.5C 370.296,166.3 372.629,159.967 374.5,153.5 Z"/></g>
<g><path style="opacity:1" fill="#f9e4e4" d="M 389.5,153.5 C 403.563,152.87 407.563,159.037 401.5,172C 397.637,173.354 393.637,173.854 389.5,173.5C 389.5,166.833 389.5,160.167 389.5,153.5 Z"/></g>
<g><path style="opacity:1" fill="#f8dada" d="M 413.5,153.5 C 418.28,152.641 421.78,154.308 424,158.5C 426.547,166.4 424.047,171.733 416.5,174.5C 412.736,174.04 410.236,172.04 409,168.5C 408.333,165.167 408.333,161.833 409,158.5C 410.025,156.313 411.525,154.646 413.5,153.5 Z"/></g>
<g><path style="opacity:1" fill="#e8999b" d="M 164.5,153.5 C 165.434,154.568 165.768,155.901 165.5,157.5C 162.167,157.5 158.833,157.5 155.5,157.5C 158.287,156.523 161.287,156.19 164.5,156.5C 164.5,155.5 164.5,154.5 164.5,153.5 Z"/></g>
<g><path style="opacity:1" fill="#e68e8f" d="M 326.5,153.5 C 327.434,154.568 327.768,155.901 327.5,157.5C 324.167,157.5 320.833,157.5 317.5,157.5C 320.287,156.523 323.287,156.19 326.5,156.5C 326.5,155.5 326.5,154.5 326.5,153.5 Z"/></g>
<g><path style="opacity:1" fill="#d43c3e" d="M 231.5,157.5 C 233.527,157.338 235.527,157.505 237.5,158C 238.833,159.333 238.833,160.667 237.5,162C 235.527,162.495 233.527,162.662 231.5,162.5C 231.5,160.833 231.5,159.167 231.5,157.5 Z"/></g>
<g><path style="opacity:1" fill="#d33a3d" d="M 260.5,157.5 C 266.239,156.073 268.572,158.24 267.5,164C 268.148,169.346 265.814,171.513 260.5,170.5C 260.5,166.167 260.5,161.833 260.5,157.5 Z"/></g>
<g><path style="opacity:1" fill="#e27c7d" d="M 364.5,156.5 C 363.081,157.451 361.415,157.784 359.5,157.5C 359.821,163.026 359.488,168.36 358.5,173.5C 358.5,167.833 358.5,162.167 358.5,156.5C 360.5,156.5 362.5,156.5 364.5,156.5 Z"/></g>
<g><path style="opacity:1" fill="#d54243" d="M 392.5,157.5 C 397.827,156.175 400.494,158.175 400.5,163.5C 400.941,169.392 398.275,171.725 392.5,170.5C 392.5,166.167 392.5,161.833 392.5,157.5 Z"/></g>
<g><path style="opacity:1" fill="#d43d3f" d="M 414.5,156.5 C 417.238,155.965 419.072,156.965 420,159.5C 420.667,162.5 420.667,165.5 420,168.5C 417.667,171.167 415.333,171.167 413,168.5C 411.994,164.198 412.494,160.198 414.5,156.5 Z"/></g>
<g><path style="opacity:1" fill="#e07172" d="M 142.5,153.5 C 142.5,156.5 142.5,159.5 142.5,162.5C 139.833,162.5 137.167,162.5 134.5,162.5C 134.5,162.167 134.5,161.833 134.5,161.5C 136.833,161.5 139.167,161.5 141.5,161.5C 141.194,158.615 141.527,155.948 142.5,153.5 Z"/></g>
<g><path style="opacity:1" fill="#d84c4c" d="M 375.5,159.5 C 377.086,161.081 378.086,163.081 378.5,165.5C 376.926,166.631 375.259,166.798 373.5,166C 374.397,163.913 375.064,161.746 375.5,159.5 Z"/></g>
<g><path style="opacity:1" fill="#d54445" d="M 177.5,159.5 C 178.269,161.667 179.269,163.834 180.5,166C 178.741,166.798 177.074,166.631 175.5,165.5C 176.172,163.47 176.838,161.47 177.5,159.5 Z"/></g>
<g><path style="opacity:1" fill="#fbf0f0" d="M 242.5,195.5 C 241.167,195.5 239.833,195.5 238.5,195.5C 238.5,197.833 238.5,200.167 238.5,202.5C 239.5,203.167 240.5,203.833 241.5,204.5C 240.167,204.5 238.833,204.5 237.5,204.5C 237.5,201.167 237.5,197.833 237.5,194.5C 239.415,194.216 241.081,194.549 242.5,195.5 Z"/></g>
<g><path style="opacity:1" fill="#fcf5f5" d="M 290.5,198.5 C 289.432,199.434 288.099,199.768 286.5,199.5C 286.5,200.833 286.5,202.167 286.5,203.5C 288.167,203.5 289.833,203.5 291.5,203.5C 289.735,204.461 287.735,204.795 285.5,204.5C 285.5,201.167 285.5,197.833 285.5,194.5C 287.527,194.338 289.527,194.505 291.5,195C 289.866,195.494 288.199,195.66 286.5,195.5C 286.5,196.5 286.5,197.5 286.5,198.5C 287.833,198.5 289.167,198.5 290.5,198.5 Z"/></g>
<g><path style="opacity:1" fill="#fcf4f4" d="M 325.5,194.5 C 325.5,194.833 325.5,195.167 325.5,195.5C 324.5,195.5 323.5,195.5 322.5,195.5C 322.5,197.833 322.5,200.167 322.5,202.5C 323.5,203.167 324.5,203.833 325.5,204.5C 324.167,204.5 322.833,204.5 321.5,204.5C 321.5,201.167 321.5,197.833 321.5,194.5C 322.833,194.5 324.167,194.5 325.5,194.5 Z"/></g>
<g><path style="opacity:1" fill="#ec9d9d" d="M 233.5,194.5 C 234.777,195.694 235.444,197.36 235.5,199.5C 235.167,201.167 234.833,202.833 234.5,204.5C 233.513,201.232 233.18,197.898 233.5,194.5 Z"/></g>
<g><path style="opacity:1" fill="#f2bcbc" d="M 258.5,194.5 C 260.857,194.337 263.19,194.503 265.5,195C 263.866,195.494 262.199,195.66 260.5,195.5C 260.5,196.5 260.5,197.5 260.5,198.5C 265.694,198.942 265.694,199.942 260.5,201.5C 262.167,202.167 263.833,202.833 265.5,203.5C 263.257,204.474 260.924,204.808 258.5,204.5C 258.5,201.167 258.5,197.833 258.5,194.5 Z"/></g>
<g><path style="opacity:1" fill="#f2c0c0" d="M 224.5,195.5 C 228.967,194.138 230.633,194.138 229.5,195.5C 228.833,207.5 228.167,207.5 227.5,195.5C 226.5,195.5 225.5,195.5 224.5,195.5 Z"/></g>
<g><path style="opacity:1" fill="#d43b3e" d="M 242.5,195.5 C 242.5,197.833 242.5,200.167 242.5,202.5C 241.167,202.5 239.833,202.5 238.5,202.5C 238.5,200.167 238.5,197.833 238.5,195.5C 239.833,195.5 241.167,195.5 242.5,195.5 Z"/></g>
<g><path style="opacity:1" fill="#d43c3e" d="M 325.5,195.5 C 326.369,197.717 326.702,200.05 326.5,202.5C 325.167,202.5 323.833,202.5 322.5,202.5C 322.5,200.167 322.5,197.833 322.5,195.5C 323.5,195.5 324.5,195.5 325.5,195.5 Z"/></g>
<g><path style="opacity:1" fill="#f7dfdf" d="M 270.5,198.5 C 269.883,198.389 269.383,198.056 269,197.5C 268.667,199.833 268.333,202.167 268,204.5C 267.333,201.167 267.333,197.833 268,194.5C 269.481,195.471 270.315,196.804 270.5,198.5 Z"/></g>
<g><path style="opacity:1" fill="#f3c6c7" d="M 278.5,203.5 C 277.883,203.389 277.383,203.056 277,202.5C 274.808,195.354 276.975,193.187 283.5,196C 281.893,195.981 280.226,195.815 278.5,195.5C 278.5,198.167 278.5,200.833 278.5,203.5 Z"/></g>
<g><path style="opacity:1" fill="#f0babb" d="M 325.5,194.5 C 327.735,195.286 328.735,196.952 328.5,199.5C 328.714,201.942 327.714,203.608 325.5,204.5C 324.5,203.833 323.5,203.167 322.5,202.5C 323.833,202.5 325.167,202.5 326.5,202.5C 326.702,200.05 326.369,197.717 325.5,195.5C 325.5,195.167 325.5,194.833 325.5,194.5 Z"/></g>
<g><path style="opacity:1" fill="#f6d2d3" d="M 216.5,194.5 C 218.792,194.244 220.959,194.577 223,195.5C 222.731,198.57 222.731,201.57 223,204.5C 220.834,199.464 219.001,199.464 217.5,204.5C 216.513,201.232 216.18,197.898 216.5,194.5 Z"/></g>
<g><path style="opacity:1" fill="#d43f41" d="M 218.5,195.5 C 219.5,195.5 220.5,195.5 221.5,195.5C 221.5,196.5 221.5,197.5 221.5,198.5C 220.5,198.5 219.5,198.5 218.5,198.5C 218.5,197.5 218.5,196.5 218.5,195.5 Z"/></g>
<g><path style="opacity:1" fill="#f0bbbb" d="M 242.5,195.5 C 243.993,196.312 244.66,197.645 244.5,199.5C 244.714,201.942 243.714,203.608 241.5,204.5C 240.5,203.833 239.5,203.167 238.5,202.5C 239.833,202.5 241.167,202.5 242.5,202.5C 242.5,200.167 242.5,197.833 242.5,195.5 Z"/></g>
<g><path style="opacity:1" fill="#f8dfdf" d="M 308.5,195.5 C 310.984,196.964 310.984,198.631 308.5,200.5C 309.04,201.748 309.707,202.915 310.5,204C 308.066,204.333 307.066,203.166 307.5,200.5C 306.5,200.5 305.5,200.5 304.5,200.5C 304.657,201.873 304.49,203.207 304,204.5C 303.502,201.183 303.335,197.85 303.5,194.5C 305.415,194.216 307.081,194.549 308.5,195.5 Z"/></g>
<g><path style="opacity:1" fill="#d74849" d="M 308.5,195.5 C 308.5,196.5 308.5,197.5 308.5,198.5C 307.167,198.5 305.833,198.5 304.5,198.5C 304.5,197.5 304.5,196.5 304.5,195.5C 305.833,195.5 307.167,195.5 308.5,195.5 Z"/></g>
<g><path style="opacity:1" fill="#f7d8d9" d="M 198.5,194.5 C 200.792,194.244 202.959,194.577 205,195.5C 206.177,199.492 204.677,201.158 200.5,200.5C 200.762,201.978 200.429,203.311 199.5,204.5C 198.513,201.232 198.18,197.898 198.5,194.5 Z"/></g>
<g><path style="opacity:1" fill="#d84f4f" d="M 200.5,195.5 C 202.346,195.222 203.68,195.889 204.5,197.5C 203.68,199.111 202.346,199.778 200.5,199.5C 200.5,198.167 200.5,196.833 200.5,195.5 Z"/></g>
<g><path style="opacity:1" fill="#f7dbdb" d="M 293.5,194.5 C 295.792,194.244 297.959,194.577 300,195.5C 299.731,198.57 299.731,201.57 300,204.5C 297.834,199.464 296.001,199.464 294.5,204.5C 293.513,201.232 293.18,197.898 293.5,194.5 Z"/></g>
<g><path style="opacity:1" fill="#d64748" d="M 295.5,195.5 C 297.346,195.222 298.68,195.889 299.5,197.5C 298.311,198.429 296.978,198.762 295.5,198.5C 295.5,197.5 295.5,196.5 295.5,195.5 Z"/></g>
<g><path style="opacity:1" fill="#f8d7d7" d="M 209.5,194.5 C 210.5,194.5 211.5,194.5 212.5,194.5C 212.895,197.686 213.895,200.686 215.5,203.5C 215.167,203.833 214.833,204.167 214.5,204.5C 213.532,203.511 212.365,202.844 211,202.5C 209.415,203.245 207.915,203.745 206.5,204C 208.193,201.066 209.193,197.899 209.5,194.5 Z"/></g>
<g><path style="opacity:1" fill="#d64546" d="M 210.5,197.5 C 211.267,198.172 211.934,199.005 212.5,200C 210.939,200.188 210.272,199.355 210.5,197.5 Z"/></g>
<g><path style="opacity:1" fill="#f7d5d5" d="M 248.5,194.5 C 249.496,194.414 250.329,194.748 251,195.5C 252.318,198.43 252.985,201.43 253,204.5C 250.84,201.919 248.674,201.919 246.5,204.5C 246.167,204.167 245.833,203.833 245.5,203.5C 246.705,200.55 247.705,197.55 248.5,194.5 Z"/></g>
<g><path style="opacity:1" fill="#d95253" d="M 249.5,197.5 C 250.776,198.386 250.776,199.386 249.5,200.5C 248.438,199.575 248.438,198.575 249.5,197.5 Z"/></g>
<g><path style="opacity:1" fill="#f8e1e2" d="M 270.5,198.5 C 271.79,199.058 272.623,200.058 273,201.5C 273.333,199.167 273.667,196.833 274,194.5C 274.667,197.833 274.667,201.167 274,204.5C 272.053,202.937 270.886,200.937 270.5,198.5 Z"/></g>
<g><path style="opacity:1" fill="#f7d8d8" d="M 314.5,194.5 C 317.79,196.943 319.29,200.277 319,204.5C 316.84,201.919 314.674,201.919 312.5,204.5C 312.167,204.167 311.833,203.833 311.5,203.5C 312.705,200.55 313.705,197.55 314.5,194.5 Z"/></g>
<g><path style="opacity:1" fill="#d54344" d="M 314.5,198.5 C 316.337,198.639 316.67,199.306 315.5,200.5C 314.702,200.043 314.369,199.376 314.5,198.5 Z"/></g>
<g><path style="opacity:1" fill="#f8dbdb" d="M 332.5,194.5 C 333.496,194.414 334.329,194.748 335,195.5C 336.028,198.509 336.695,201.509 337,204.5C 334.667,201.833 332.333,201.833 330,204.5C 330.494,201.164 331.328,197.831 332.5,194.5 Z"/></g>
<g><path style="opacity:1" fill="#d7494b" d="M 333.5,197.5 C 334.776,198.386 334.776,199.386 333.5,200.5C 332.438,199.575 332.438,198.575 333.5,197.5 Z"/></g>
<g><path style="opacity:1" fill="#e89394" d="M 290.5,198.5 C 291.043,198.56 291.376,198.893 291.5,199.5C 290.167,200.167 288.833,200.833 287.5,201.5C 288.949,202.172 290.282,202.839 291.5,203.5C 289.833,203.5 288.167,203.5 286.5,203.5C 286.5,202.167 286.5,200.833 286.5,199.5C 288.099,199.768 289.432,199.434 290.5,198.5 Z"/></g>
<g><path style="opacity:1" fill="#f7dddd" d="M 278.5,203.5 C 280.226,203.185 281.893,203.019 283.5,203C 281.852,204.677 280.185,204.844 278.5,203.5 Z"/></g>
<g><path style="opacity:1" fill="#f3c5c6" d="M 138.5,209.5 C 141.598,209.413 141.932,209.913 139.5,211C 140.167,211.333 140.833,211.667 141.5,212C 140.333,212.5 139.5,213.333 139,214.5C 138.506,212.866 138.34,211.199 138.5,209.5 Z"/></g>
<g><path style="opacity:1" fill="#eca3a3" d="M 172.5,210.5 C 172.291,211.922 171.791,213.255 171,214.5C 170.333,213.167 169.667,213.167 169,214.5C 168.506,212.866 168.34,211.199 168.5,209.5C 169.959,209.433 171.292,209.766 172.5,210.5 Z"/></g>
<g><path style="opacity:1" fill="#e58586" d="M 261.5,209.5 C 263.045,210.23 263.878,211.563 264,213.5C 264.49,212.207 264.657,210.873 264.5,209.5C 265.833,209.5 267.167,209.5 268.5,209.5C 268.66,213.236 269.493,213.236 271,209.5C 271.494,211.134 271.66,212.801 271.5,214.5C 268.049,214.984 264.716,214.984 261.5,214.5C 261.5,212.833 261.5,211.167 261.5,209.5 Z"/></g>
<g><path style="opacity:1" fill="#f5d1d1" d="M 369.5,209.5 C 372.598,209.413 372.932,209.913 370.5,211C 371.167,211.333 371.833,211.667 372.5,212C 371.584,212.278 370.918,212.778 370.5,213.5C 369.479,213.101 369.146,211.767 369.5,209.5 Z"/></g>
<g><path style="opacity:1" fill="#e58282" d="M 79.5,214.5 C 78.9394,212.934 79.6061,211.601 81.5,210.5C 86.1693,209.729 90.836,209.395 95.5,209.5C 97.3837,210.693 97.8837,212.359 97,214.5C 92.8956,215.714 89.0623,215.047 85.5,212.5C 83.6926,214.663 81.6926,215.329 79.5,214.5 Z"/></g>
<g><path style="opacity:1" fill="#e48283" d="M 104.5,209.5 C 105.94,210.363 107.274,210.363 108.5,209.5C 109.452,211.045 109.785,212.712 109.5,214.5C 107.5,214.833 105.5,215.167 103.5,215.5C 103.325,213.379 103.659,211.379 104.5,209.5 Z"/></g>
<g><path style="opacity:1" fill="#f1bdbe" d="M 221.5,209.5 C 221.5,209.833 221.5,210.167 221.5,210.5C 218.903,210.721 218.903,211.221 221.5,212C 221.272,212.399 220.938,212.565 220.5,212.5C 219.778,212.918 219.278,213.584 219,214.5C 218.51,213.207 218.343,211.873 218.5,210.5C 219.209,209.596 220.209,209.263 221.5,209.5 Z"/></g>
<g><path style="opacity:1" fill="#e27677" d="M 221.5,210.5 C 221.5,210.167 221.5,209.833 221.5,209.5C 222.5,209.5 223.5,209.5 224.5,209.5C 224.238,210.978 224.571,212.311 225.5,213.5C 226.892,212.395 228.059,211.061 229,209.5C 229.77,210.598 230.603,210.598 231.5,209.5C 231.492,215.208 231.992,215.541 233,210.5C 234.262,211.875 234.762,213.208 234.5,214.5C 230.943,214.778 227.276,214.945 223.5,215C 222.901,213.378 222.234,211.878 221.5,210.5 Z"/></g>
<g><path style="opacity:1" fill="#efb3b5" d="M 247.5,209.5 C 247.784,211.415 247.451,213.081 246.5,214.5C 245.538,212.014 244.705,212.014 244,214.5C 243.333,212.833 243.333,211.167 244,209.5C 245.393,212.125 246.559,212.125 247.5,209.5 Z"/></g>
<g><path style="opacity:1" fill="#f4cecf" d="M 284.5,210.5 C 284.5,210.167 284.5,209.833 284.5,209.5C 285.873,209.343 287.207,209.51 288.5,210C 287.033,211.098 286.199,212.598 286,214.5C 285.79,212.942 285.29,211.609 284.5,210.5 Z"/></g>
<g><path style="opacity:1" fill="#e99595" d="M 367.5,209.5 C 368.833,210.833 368.833,212.167 367.5,213.5C 365.402,214.914 364.402,214.248 364.5,211.5C 363.325,211.281 362.325,211.614 361.5,212.5C 362.506,213.396 362.506,214.062 361.5,214.5C 360.253,212.994 360.253,211.494 361.5,210C 363.387,210.423 365.387,210.256 367.5,209.5 Z"/></g>
<g><path style="opacity:1" fill="#f6d9d9" d="M 379.5,210.5 C 380.251,209.427 381.251,209.26 382.5,210C 381.773,211.399 381.273,212.899 381,214.5C 380.79,212.942 380.29,211.609 379.5,210.5 Z"/></g>
<g><path style="opacity:1" fill="#e78e8f" d="M 111.5,209.5 C 113.5,209.5 115.5,209.5 117.5,209.5C 117.833,214.833 118.167,214.833 118.5,209.5C 120.39,209.297 121.89,209.963 123,211.5C 123.71,210.027 124.876,209.36 126.5,209.5C 126.5,211.5 126.5,213.5 126.5,215.5C 124.408,215.439 122.908,214.439 122,212.5C 121.225,214.223 119.892,215.223 118,215.5C 116.864,214.217 115.531,213.217 114,212.5C 113.055,212.905 112.388,213.572 112,214.5C 111.506,212.866 111.34,211.199 111.5,209.5 Z"/></g>
<g><path style="opacity:1" fill="#ea9b9b" d="M 159.5,209.5 C 161.346,209.222 162.68,209.889 163.5,211.5C 162.066,212.23 160.9,213.23 160,214.5C 159.506,212.866 159.34,211.199 159.5,209.5 Z"/></g>
<g><path style="opacity:1" fill="#eb9f9f" d="M 165.5,209.5 C 166.931,210.78 167.598,212.447 167.5,214.5C 163.247,214.88 162.58,213.213 165.5,209.5 Z"/></g>
<g><path style="opacity:1" fill="#f0bcbd" d="M 172.5,210.5 C 173.919,209.549 175.585,209.216 177.5,209.5C 177.784,211.415 177.451,213.081 176.5,214.5C 175.968,209.203 175.134,209.203 174,214.5C 173.79,212.942 173.29,211.609 172.5,210.5 Z"/></g>
<g><path style="opacity:1" fill="#dd5e5d" d="M 206.5,210.5 C 207.485,212.314 207.485,213.648 206.5,214.5C 205.081,215.451 203.415,215.784 201.5,215.5C 200.41,210.585 202.077,208.919 206.5,210.5 Z"/></g>
<g><path style="opacity:1" fill="#e68989" d="M 284.5,209.5 C 284.5,209.833 284.5,210.167 284.5,210.5C 284.785,212.288 284.452,213.955 283.5,215.5C 282.749,214.624 282.249,213.624 282,212.5C 280.265,214.868 279.098,214.368 278.5,211C 278.667,210.5 278.833,210 279,209.5C 280.707,210.138 282.54,210.138 284.5,209.5 Z"/></g>
<g><path style="opacity:1" fill="#e99494" d="M 297.5,209.5 C 298.29,210.609 298.79,211.942 299,213.5C 301.106,208.233 302.606,208.566 303.5,214.5C 301.777,214.591 299.777,214.925 297.5,215.5C 297.5,213.5 297.5,211.5 297.5,209.5 Z"/></g>
<g><path style="opacity:1" fill="#eba3a4" d="M 373.5,209.5 C 375.201,209.966 376.701,209.966 378,209.5C 378.494,211.134 378.66,212.801 378.5,214.5C 376.058,214.881 375.391,214.214 376.5,212.5C 376.192,211.692 375.692,211.025 375,210.5C 373.992,215.541 373.492,215.208 373.5,209.5 Z"/></g>
<g><path style="opacity:1" fill="#e79091" d="M 387.5,209.5 C 390.254,209.887 392.754,210.221 395,210.5C 395.5,211.5 396,212.5 396.5,213.5C 394.604,214.466 392.604,214.799 390.5,214.5C 390.167,209.167 389.833,209.167 389.5,214.5C 387.396,214.799 385.396,214.466 383.5,213.5C 384.351,210.388 385.517,210.054 387,212.5C 387.483,211.552 387.649,210.552 387.5,209.5 Z"/></g>
<g><path style="opacity:1" fill="#eb9fa0" d="M 408.5,209.5 C 408.784,211.415 408.451,213.081 407.5,214.5C 406.538,212.014 405.705,212.014 405,214.5C 404.202,212.741 404.369,211.074 405.5,209.5C 406.192,210.025 406.692,210.692 407,211.5C 407.278,210.584 407.778,209.918 408.5,209.5 Z"/></g>
<g><path style="opacity:1" fill="#e58485" d="M 442.5,210.5 C 443.93,210.579 445.264,210.246 446.5,209.5C 447.466,211.396 447.799,213.396 447.5,215.5C 443.828,215.817 442.162,214.151 442.5,210.5 Z"/></g>
<g><path style="opacity:1" fill="#eca6a6" d="M 484.5,210.5 C 481.402,210.413 481.068,210.913 483.5,212C 482.333,212.5 481.5,213.333 481,214.5C 480.333,211.833 479.667,211.833 479,214.5C 478.667,213.833 478.333,213.167 478,212.5C 477.722,213.416 477.222,214.082 476.5,214.5C 476.5,212.833 476.5,211.167 476.5,209.5C 479.21,209.808 481.877,210.141 484.5,210.5 Z"/></g>
<g><path style="opacity:1" fill="#eca8aa" d="M 49.5,209.5 C 50.7899,210.058 51.6232,211.058 52,212.5C 52.4186,211.328 53.0853,210.328 54,209.5C 54.6667,211.167 54.6667,212.833 54,214.5C 52.6667,214.5 51.3333,214.5 50,214.5C 49.5065,212.866 49.3398,211.199 49.5,209.5 Z"/></g>
<g><path style="opacity:1" fill="#ea9b9d" d="M 231.5,209.5 C 233.911,209.137 235.411,210.137 236,212.5C 237.483,210.054 238.649,210.388 239.5,213.5C 237.831,214.973 236.164,215.306 234.5,214.5C 234.762,213.208 234.262,211.875 233,210.5C 231.992,215.541 231.492,215.208 231.5,209.5 Z"/></g>
<g><path style="opacity:1" fill="#f2c5c6" d="M 257.5,209.5 C 258.151,210.091 258.818,210.757 259.5,211.5C 260.182,210.757 260.849,210.091 261.5,209.5C 261.5,211.167 261.5,212.833 261.5,214.5C 260.849,213.909 260.182,213.243 259.5,212.5C 258.702,212.957 258.369,213.624 258.5,214.5C 257.549,213.081 257.216,211.415 257.5,209.5 Z"/></g>
<g><path style="opacity:1" fill="#eb9e9e" d="M 292.5,209.5 C 293.833,209.5 295.167,209.5 296.5,209.5C 296.66,211.199 296.494,212.866 296,214.5C 294.701,214.034 293.201,214.034 291.5,214.5C 291.366,212.708 291.699,211.042 292.5,209.5 Z"/></g>
<g><path style="opacity:1" fill="#edaaaa" d="M 325.5,209.5 C 326.5,209.5 327.5,209.5 328.5,209.5C 328.66,211.199 328.494,212.866 328,214.5C 327.23,213.402 326.397,213.402 325.5,214.5C 325.5,212.833 325.5,211.167 325.5,209.5 Z"/></g>
<g><path style="opacity:1" fill="#e89394" d="M 336.5,210.5 C 335.71,211.609 335.21,212.942 335,214.5C 333.691,212.109 332.691,212.109 332,214.5C 331.333,211.833 330.667,211.833 330,214.5C 329.506,212.866 329.34,211.199 329.5,209.5C 332.032,210.361 334.365,210.695 336.5,210.5 Z"/></g>
<g><path style="opacity:1" fill="#e99191" d="M 336.5,210.5 C 341.669,208.411 342.836,209.744 340,214.5C 339.458,209.279 338.624,209.279 337.5,214.5C 336.571,213.311 336.238,211.978 336.5,210.5 Z"/></g>
<g><path style="opacity:1" fill="#eaa0a1" d="M 352.5,210.5 C 349.402,210.413 349.068,210.913 351.5,212C 350.333,212.5 349.5,213.333 349,214.5C 348.506,212.866 348.34,211.199 348.5,209.5C 350.099,209.232 351.432,209.566 352.5,210.5 Z"/></g>
<g><path style="opacity:1" fill="#de6768" d="M 367.5,209.5 C 368.167,209.5 368.833,209.5 369.5,209.5C 369.146,211.767 369.479,213.101 370.5,213.5C 373.152,214.294 372.985,214.96 370,215.5C 368.624,215.316 367.791,214.649 367.5,213.5C 368.833,212.167 368.833,210.833 367.5,209.5 Z"/></g>
<g><path style="opacity:1" fill="#e89293" d="M 399.5,209.5 C 401.741,210.3 402.741,211.966 402.5,214.5C 401.022,214.762 399.689,214.429 398.5,213.5C 399.246,212.264 399.579,210.93 399.5,209.5 Z"/></g>
<g><path style="opacity:1" fill="#edaeb0" d="M 418.5,209.5 C 419.741,211.931 420.908,211.931 422,209.5C 422.667,211.167 422.667,212.833 422,214.5C 420.929,211.887 420.095,211.887 419.5,214.5C 418.549,213.081 418.216,211.415 418.5,209.5 Z"/></g>
<g><path style="opacity:1" fill="#dc6060" d="M 476.5,214.5 C 477.222,214.082 477.722,213.416 478,212.5C 478.333,213.167 478.667,213.833 479,214.5C 479.667,211.833 480.333,211.833 481,214.5C 481.5,213.333 482.333,212.5 483.5,212C 481.068,210.913 481.402,210.413 484.5,210.5C 485.423,209.697 486.423,209.53 487.5,210C 487.167,210.333 486.833,210.667 486.5,211C 488.037,212.11 488.703,213.61 488.5,215.5C 484.298,215.817 480.298,215.483 476.5,214.5 Z"/></g>
<g><path style="opacity:1" fill="#e89293" d="M 56.5,210.5 C 58.9479,209.527 61.6146,209.194 64.5,209.5C 64.6602,211.199 64.4935,212.866 64,214.5C 63.2588,213.359 62.4255,213.359 61.5,214.5C 60.3756,209.279 59.5423,209.279 59,214.5C 58.8784,212.563 58.045,211.23 56.5,210.5 Z"/></g>
<g><path style="opacity:1" fill="#e89495" d="M 69.5,209.5 C 70.8333,209.5 72.1667,209.5 73.5,209.5C 72.4391,213.861 69.7725,215.195 65.5,213.5C 66.3505,210.388 67.5172,210.054 69,212.5C 69.4828,211.552 69.6495,210.552 69.5,209.5 Z"/></g>
<g><path style="opacity:1" fill="#ea9e9f" d="M 81.5,210.5 C 79.6061,211.601 78.9394,212.934 79.5,214.5C 77.8333,214.5 76.1667,214.5 74.5,214.5C 74.4914,212.692 74.9914,211.025 76,209.5C 76.9147,210.328 77.5814,211.328 78,212.5C 78.5666,210.017 79.7333,209.35 81.5,210.5 Z"/></g>
<g><path style="opacity:1" fill="#efb6b6" d="M 99.5,209.5 C 102.598,209.413 102.932,209.913 100.5,211C 101.167,211.333 101.833,211.667 102.5,212C 101.333,212.5 100.5,213.333 100,214.5C 99.5065,212.866 99.3398,211.199 99.5,209.5 Z"/></g>
<g><path style="opacity:1" fill="#e68a8a" d="M 148.5,209.5 C 149.29,210.609 149.79,211.942 150,213.5C 150.219,212.062 150.719,210.729 151.5,209.5C 153.395,213.143 152.395,215.143 148.5,215.5C 148.5,213.5 148.5,211.5 148.5,209.5 Z"/></g>
<g><path style="opacity:1" fill="#eba0a0" d="M 154.5,209.5 C 156.213,210.635 156.88,212.302 156.5,214.5C 155.5,214.5 154.5,214.5 153.5,214.5C 153.366,212.708 153.699,211.042 154.5,209.5 Z"/></g>
<g><path style="opacity:1" fill="#eba3a4" d="M 213.5,209.5 C 213.66,211.199 213.494,212.866 213,214.5C 212.333,213.833 211.667,213.167 211,212.5C 210.583,213.756 209.75,214.423 208.5,214.5C 207.833,214.5 207.167,214.5 206.5,214.5C 207.485,213.648 207.485,212.314 206.5,210.5C 206.435,210.062 206.601,209.728 207,209.5C 207.915,210.328 208.581,211.328 209,212.5C 209.582,209.332 210.582,208.999 212,211.5C 212.278,210.584 212.778,209.918 213.5,209.5 Z"/></g>
<g><path style="opacity:1" fill="#ea9e9e" d="M 273.5,209.5 C 276.229,211.139 276.562,212.805 274.5,214.5C 273.833,214.167 273.167,213.833 272.5,213.5C 273.246,212.264 273.579,210.93 273.5,209.5 Z"/></g>
<g><path style="opacity:1" fill="#ea9c9d" d="M 343.5,209.5 C 347.546,212.464 347.213,214.131 342.5,214.5C 342.629,212.784 342.962,211.117 343.5,209.5 Z"/></g>
<g><path style="opacity:1" fill="#f0b2b2" d="M 352.5,210.5 C 356.071,209.243 357.238,210.576 356,214.5C 355.751,213.376 355.251,212.376 354.5,211.5C 354.002,212.603 353.669,213.603 353.5,214.5C 352.571,213.311 352.238,211.978 352.5,210.5 Z"/></g>
<g><path style="opacity:1" fill="#f1bcbc" d="M 431.5,210.5 C 432.043,210.56 432.376,210.893 432.5,211.5C 431.66,212.735 430.66,213.735 429.5,214.5C 428.387,213.054 428.22,211.387 429,209.5C 429.601,211.359 430.434,211.692 431.5,210.5 Z"/></g>
<g><path style="opacity:1" fill="#e27a7b" d="M 431.5,210.5 C 431.56,209.957 431.893,209.624 432.5,209.5C 433.452,211.045 433.785,212.712 433.5,214.5C 432.167,214.5 430.833,214.5 429.5,214.5C 430.66,213.735 431.66,212.735 432.5,211.5C 432.376,210.893 432.043,210.56 431.5,210.5 Z"/></g>
<g><path style="opacity:1" fill="#e37d7f" d="M 44.5,209.5 C 46.045,210.23 46.8784,211.563 47,213.5C 47.3333,212.167 47.6667,210.833 48,209.5C 48.4955,211.473 48.6621,213.473 48.5,215.5C 44.9319,215.241 43.5985,213.241 44.5,209.5 Z"/></g>
<g><path style="opacity:1" fill="#e68786" d="M 127.5,209.5 C 129.891,210.408 132.224,210.574 134.5,210C 135.406,211.699 135.739,213.533 135.5,215.5C 132.833,214.167 130.167,214.167 127.5,215.5C 127.5,213.5 127.5,211.5 127.5,209.5 Z"/></g>
<g><path style="opacity:1" fill="#e78c8d" d="M 144.5,209.5 C 146.379,209.393 146.712,209.893 145.5,211C 147.037,212.11 147.703,213.61 147.5,215.5C 146.325,215.719 145.325,215.386 144.5,214.5C 145.052,212.997 145.052,211.331 144.5,209.5 Z"/></g>
<g><path style="opacity:1" fill="#e58484" d="M 177.5,209.5 C 180.86,208.79 182.693,210.124 183,213.5C 184.798,208.291 185.964,208.624 186.5,214.5C 183.24,215.02 179.907,215.02 176.5,214.5C 177.451,213.081 177.784,211.415 177.5,209.5 Z"/></g>
<g><path style="opacity:1" fill="#e48282" d="M 189.5,209.5 C 192.598,209.413 192.932,209.913 190.5,211C 191,211.167 191.5,211.333 192,211.5C 193.93,209.829 195.93,209.163 198,209.5C 198.981,212.557 197.981,214.557 195,215.5C 193.832,214.491 192.665,213.491 191.5,212.5C 190.808,213.025 190.308,213.692 190,214.5C 189.506,212.866 189.34,211.199 189.5,209.5 Z"/></g>
<g><path style="opacity:1" fill="#de6868" d="M 213.5,209.5 C 215.098,209.61 216.765,209.943 218.5,210.5C 218.343,211.873 218.51,213.207 219,214.5C 219.278,213.584 219.778,212.918 220.5,212.5C 220.804,213.15 221.137,213.817 221.5,214.5C 217.016,215.811 212.683,215.811 208.5,214.5C 209.75,214.423 210.583,213.756 211,212.5C 211.667,213.167 212.333,213.833 213,214.5C 213.494,212.866 213.66,211.199 213.5,209.5 Z"/></g>
<g><path style="opacity:1" fill="#dc5f5f" d="M 247.5,209.5 C 247.833,209.5 248.167,209.5 248.5,209.5C 248.34,211.199 248.506,212.866 249,214.5C 249.5,213.333 250.333,212.5 251.5,212C 249.068,210.913 249.402,210.413 252.5,210.5C 252.343,211.873 252.51,213.207 253,214.5C 253.278,213.584 253.778,212.918 254.5,212.5C 255.1,211.1 256.1,210.1 257.5,209.5C 257.216,211.415 257.549,213.081 258.5,214.5C 254.5,215.833 250.5,215.833 246.5,214.5C 247.451,213.081 247.784,211.415 247.5,209.5 Z"/></g>
<g><path style="opacity:1" fill="#efb5b6" d="M 248.5,209.5 C 250.199,209.34 251.866,209.506 253.5,210C 254.252,210.671 254.586,211.504 254.5,212.5C 253.778,212.918 253.278,213.584 253,214.5C 252.51,213.207 252.343,211.873 252.5,210.5C 249.402,210.413 249.068,210.913 251.5,212C 250.333,212.5 249.5,213.333 249,214.5C 248.506,212.866 248.34,211.199 248.5,209.5 Z"/></g>
<g><path style="opacity:1" fill="#e58686" d="M 309.5,209.5 C 311.045,210.23 311.878,211.563 312,213.5C 312.219,212.062 312.719,210.729 313.5,209.5C 314.886,211.954 314.386,213.954 312,215.5C 309.946,214.921 307.946,214.588 306,214.5C 305.337,209.999 305.837,209.665 307.5,213.5C 308.362,212.234 309.029,210.901 309.5,209.5 Z"/></g>
<g><path style="opacity:1" fill="#e27676" d="M 319.5,210.5 C 319.5,211.833 319.5,213.167 319.5,214.5C 322.361,214.487 323.361,213.321 322.5,211C 323.416,210.722 324.082,210.222 324.5,209.5C 324.833,209.5 325.167,209.5 325.5,209.5C 325.5,211.167 325.5,212.833 325.5,214.5C 322.609,215.403 319.609,215.736 316.5,215.5C 316.5,213.5 316.5,211.5 316.5,209.5C 317.791,209.263 318.791,209.596 319.5,210.5 Z"/></g>
<g><path style="opacity:1" fill="#eda5a5" d="M 324.5,209.5 C 324.082,210.222 323.416,210.722 322.5,211C 323.361,213.321 322.361,214.487 319.5,214.5C 319.5,213.167 319.5,211.833 319.5,210.5C 321.042,209.699 322.708,209.366 324.5,209.5 Z"/></g>
<g><path style="opacity:1" fill="#db5c5d" d="M 408.5,209.5 C 408.833,209.5 409.167,209.5 409.5,209.5C 409.215,211.288 409.548,212.955 410.5,214.5C 412.02,213.15 412.687,211.817 412.5,210.5C 413.281,211.729 413.781,213.062 414,214.5C 414.691,212.109 415.691,212.109 417,214.5C 417.494,212.866 417.66,211.199 417.5,209.5C 417.833,209.5 418.167,209.5 418.5,209.5C 418.216,211.415 418.549,213.081 419.5,214.5C 415.5,215.833 411.5,215.833 407.5,214.5C 408.451,213.081 408.784,211.415 408.5,209.5 Z"/></g>
<g><path style="opacity:1" fill="#eca6a8" d="M 409.5,209.5 C 412.044,209.104 414.211,209.771 416,211.5C 416.278,210.584 416.778,209.918 417.5,209.5C 417.66,211.199 417.494,212.866 417,214.5C 415.691,212.109 414.691,212.109 414,214.5C 413.781,213.062 413.281,211.729 412.5,210.5C 412.687,211.817 412.02,213.15 410.5,214.5C 409.548,212.955 409.215,211.288 409.5,209.5 Z"/></g>
<g><path style="opacity:1" fill="#e6898a" d="M 423.5,209.5 C 424.835,214.535 426.001,214.535 427,209.5C 428.392,213.22 427.225,215.22 423.5,215.5C 423.5,213.5 423.5,211.5 423.5,209.5 Z"/></g>
<g><path style="opacity:1" fill="#e58282" d="M 442.5,210.5 C 441.566,211.568 441.232,212.901 441.5,214.5C 439.5,214.833 437.5,215.167 435.5,215.5C 435.5,213.5 435.5,211.5 435.5,209.5C 438.032,210.361 440.365,210.695 442.5,210.5 Z"/></g>
<g><path style="opacity:1" fill="#e5898a" d="M 452.5,209.5 C 453.139,210.097 453.472,210.93 453.5,212C 453.624,214.737 452.624,215.571 450.5,214.5C 452.005,213.158 452.672,211.492 452.5,209.5 Z"/></g>
<g><path style="opacity:1" fill="#e88e8f" d="M 455.5,209.5 C 457.5,210.626 459.5,210.793 461.5,210C 460.643,210.689 459.977,211.522 459.5,212.5C 460.603,212.998 461.603,213.331 462.5,213.5C 462.167,214.5 461.5,215.167 460.5,215.5C 458.584,214.752 456.584,214.752 454.5,215.5C 454.325,213.379 454.659,211.379 455.5,209.5 Z"/></g>
<g><path style="opacity:1" fill="#e78a89" d="M 464.5,209.5 C 465.966,210.347 466.8,211.68 467,213.5C 467.49,212.207 467.657,210.873 467.5,209.5C 469.891,210.408 472.224,210.574 474.5,210C 475.406,211.699 475.739,213.533 475.5,215.5C 471.868,215.28 468.201,214.947 464.5,214.5C 463.334,212.833 463.334,211.166 464.5,209.5 Z"/></g>
</svg>
